<mxfile host="app.diagrams.net" modified="2024-04-26T13:29:38.841Z" agent="Mozilla/5.0 (Windows NT 10.0; Win64; x64) AppleWebKit/537.36 (KHTML, like Gecko) Chrome/122.0.0.0 Safari/537.36 OPR/108.0.0.0" version="24.3.0" etag="T2za39IT2ca6PZjD4HAs" type="github">
  <diagram name="PÃ¡gina-1" id="H73Mop29-4jKWfclJ4Iu">
    <mxGraphModel>
      <root>
        <mxCell id="0" />
        <mxCell id="1" parent="0" />
      </root>
    </mxGraphModel>
  </diagram>
</mxfile>
